<?xml version="1.0" encoding="utf-8"?>
<!-- Generator: Adobe Illustrator 21.0.2, SVG Export Plug-In . SVG Version: 6.00 Build 0)  -->
<svg version="1.1" id="Layer_1" xmlns="http://www.w3.org/2000/svg" xmlns:xlink="http://www.w3.org/1999/xlink" x="0px" y="0px"
	 viewBox="0 0 100 100" style="enable-background:new 0 0 100 100;" xml:space="preserve">
<path d="M37,50.5c0,1.6-1.3,2.9-2.9,2.9c-1.6,0-2.9-1.3-2.9-2.9c0-1.6,1.3-2.9,2.9-2.9C35.7,47.6,37,48.9,37,50.5z M50.4,47.6
	c-1.6,0-2.9,1.3-2.9,2.9c0,1.6,1.3,2.9,2.9,2.9c1.6,0,2.9-1.3,2.9-2.9C53.2,48.9,52,47.6,50.4,47.6z M64.7,47.6
	c-1.6,0-2.9,1.3-2.9,2.9c0,1.6,1.3,2.9,2.9,2.9c1.6,0,2.9-1.3,2.9-2.9C67.6,48.9,66.3,47.6,64.7,47.6z M95,50c0,24.8-20.2,45-45,45
	c-6.6,0-12.9-1.4-18.8-4.1c-2.2,0.8-8.8,2.7-22,2.7c0,0,0,0,0,0c-0.1,0-0.2,0-0.4,0c-0.1,0-0.1,0-0.2-0.1c0,0-0.1,0-0.1,0
	c-0.1,0-0.1-0.1-0.2-0.1c-0.1,0-0.1-0.1-0.2-0.1c-0.1,0-0.1-0.1-0.2-0.1c0,0-0.1-0.1-0.1-0.1c-0.1-0.1-0.2-0.2-0.2-0.3c0,0,0,0,0,0
	c0,0,0,0,0-0.1c-0.1-0.1-0.1-0.2-0.1-0.3c0-0.1,0-0.1-0.1-0.2c0-0.1,0-0.1-0.1-0.2c0-0.1,0-0.2,0-0.3c0,0,0-0.1,0-0.1c0,0,0,0,0,0
	c0-0.1,0-0.3,0-0.4c0-0.1,0-0.1,0.1-0.2c0-0.1,0-0.1,0.1-0.2c0-0.1,0.1-0.1,0.1-0.2c0-0.1,0.1-0.1,0.1-0.2c0-0.1,0.1-0.1,0.1-0.1
	c0,0,0.1-0.1,0.1-0.1c0.1-0.1,0.2-0.2,0.3-0.2c0,0,0,0,0,0c6.5-4.4,6.2-11.2,5.9-13C8.1,69.2,5,59.9,5,50C5,25.2,25.2,5,50,5
	S95,25.2,95,50z M91.2,50C91.2,27.3,72.7,8.8,50,8.8C27.3,8.8,8.8,27.3,8.8,50c0,9.2,3,17.9,8.6,25.2l0.3,0.4l0.1,0.4
	c0.1,0.4,1.4,7.6-3.5,13.7c11.6-0.5,16.1-2.5,16.1-2.6c0,0,0.1,0,0.1,0c0.1,0,0.1-0.1,0.2-0.1c0,0,0.1,0,0.1,0c0.1,0,0.2,0,0.3,0
	c0,0,0.1,0,0.1,0c0.1,0,0.2,0,0.3,0c0,0,0,0,0,0c0.1,0,0.2,0,0.3,0.1c0,0,0,0,0,0c0.1,0,0.1,0,0.2,0.1c5.6,2.7,11.7,4.1,17.9,4.1
	C72.7,91.2,91.2,72.7,91.2,50z"/>
</svg>
