<?xml version="1.0" encoding="utf-8"?>
<!-- Generator: Adobe Illustrator 21.0.2, SVG Export Plug-In . SVG Version: 6.00 Build 0)  -->
<svg version="1.1" id="Layer_1" xmlns="http://www.w3.org/2000/svg" xmlns:xlink="http://www.w3.org/1999/xlink" x="0px" y="0px"
	 viewBox="0 0 100 100" style="enable-background:new 0 0 100 100;" xml:space="preserve">
<path d="M19.7,6.6C19.2,5.6,18.1,5,17,5s-2.2,0.6-2.7,1.6c0,0-6.9,13.7-7,13.8C7.1,20.9,7,21.4,7,21.8V92c0,1.7,1.3,3,3,3h14
	c1.7,0,3-1.3,3-3V21.8c0-0.5-0.1-0.9-0.3-1.4L19.7,6.6z M13.8,21l3.2-6.4l4,7.9V77h-8V22.5C13.2,22.1,13.5,21.6,13.8,21z M13,89v-8
	h8v8H13z M90,5H76c-1.7,0-3,1.3-3,3v4h-5c-1.7,0-3,1.3-3,3v14c0,1.7,1.3,3,3,3s3-1.3,3-3V18h2v60.2c0,0.5,0.1,0.9,0.3,1.4l7,13.8
	c0.5,1,1.5,1.6,2.7,1.6s2.2-0.6,2.7-1.6l7-13.8c0.2-0.4,0.3-0.9,0.3-1.4V8C93,6.3,91.7,5,90,5z M87,77.4l-4,7.9l-4-7.9V11h8V77.4z
	 M56,5H36c-1.7,0-3,1.3-3,3v84c0,1.7,1.3,3,3,3h20c1.7,0,3-1.3,3-3V8C59,6.3,57.7,5,56,5z M39,89V11h14v8h-8c-1.1,0-2,0.9-2,2
	s0.9,2,2,2h8v9h-4c-1.1,0-2,0.9-2,2s0.9,2,2,2h4v11h-8c-1.1,0-2,0.9-2,2s0.9,2,2,2h8v11h-4c-1.1,0-2,0.9-2,2s0.9,2,2,2h4v11h-6
	c-1.1,0-2,0.9-2,2s0.9,2,2,2h6v8H39z"/>
</svg>
