<?xml version="1.0" encoding="utf-8"?>
<!-- Generator: Adobe Illustrator 21.0.2, SVG Export Plug-In . SVG Version: 6.00 Build 0)  -->
<svg version="1.1" id="Layer_1" xmlns="http://www.w3.org/2000/svg" xmlns:xlink="http://www.w3.org/1999/xlink" x="0px" y="0px"
	 viewBox="0 0 100 100" style="enable-background:new 0 0 100 100;" xml:space="preserve">
<path d="M93.6,28.5c-3.4-9-11.9-14.9-22.2-15.4c-0.5,0-1,0-1.5,0c-7.5,0-14.6,2.5-19.9,6.9C44.5,15.5,37.4,13,30,13
	c-0.5,0-1,0-1.5,0C18.1,13.5,9.7,19.5,6.3,28.6c-3.1,8.4-0.8,17.5,6,23.8L49,86.2c0.6,0.5,1.3,0.8,2,0.8c0.8,0,1.5-0.3,2.1-0.8
	L88,52.3C94.6,45.9,96.7,36.8,93.6,28.5z M83.8,48L51,79.9L20.8,52h3.9l6.1,6.1c0.9,0.9,2.1,1.1,3.3,0.7c1.1-0.5,1.9-1.6,1.9-2.8
	v-8.8l13.9,13.9c0.6,0.6,1.3,0.9,2.1,0.9c0.4,0,0.8-0.1,1.1-0.2c1.1-0.5,1.9-1.6,1.9-2.8V40.2l6.9,6.9c0.6,0.6,1.3,0.9,2.1,0.9h6
	c1.7,0,3-1.3,3-3s-1.3-3-3-3h-4.8L54.1,30.9c-0.9-0.9-2.1-1.1-3.3-0.7C49.7,30.7,49,31.8,49,33v18.8L35.1,37.9
	c-0.9-0.9-2.2-1.1-3.3-0.7C30.7,37.7,30,38.8,30,40v8.8l-1.9-1.9C27.6,46.3,26.8,46,26,46H14.6C11,41.6,10,36,12,30.6
	c2.5-6.8,8.9-11.2,16.8-11.6c0.4,0,0.8,0,1.2,0c6.9,0,13.4,2.6,17.8,7.1c0.6,0.6,1.3,0.9,2.1,0.9c0,0,0,0,0,0c0.8,0,1.6-0.3,2.1-0.9
	c4.4-4.5,10.9-7.1,17.8-7.1c0.4,0,0.8,0,1.2,0c7.9,0.4,14.3,4.8,16.9,11.6C90.3,36.7,88.7,43.2,83.8,48z M82.4,45.4
	c0,0.2,0.1,0.4,0.1,0.6c0,0.8-0.3,1.6-0.9,2.1c-0.1,0.1-0.3,0.3-0.5,0.4c-0.2,0.1-0.3,0.2-0.5,0.3c-0.2,0.1-0.4,0.1-0.6,0.2
	c-0.2,0-0.4,0.1-0.6,0.1c-0.8,0-1.6-0.3-2.1-0.9c-0.1-0.1-0.3-0.3-0.4-0.5c-0.1-0.2-0.2-0.3-0.3-0.5c-0.1-0.2-0.1-0.4-0.2-0.6
	c0-0.2-0.1-0.4-0.1-0.6c0-0.8,0.3-1.6,0.9-2.1c0.7-0.7,1.7-1,2.7-0.8c0.2,0,0.4,0.1,0.6,0.2c0.2,0.1,0.4,0.2,0.5,0.3
	c0.2,0.1,0.3,0.2,0.5,0.4c0.1,0.1,0.3,0.3,0.4,0.4c0.1,0.2,0.2,0.3,0.3,0.5C82.3,45,82.4,45.2,82.4,45.4z"/>
</svg>
