<?xml version="1.0" encoding="utf-8"?>
<!-- Generator: Adobe Illustrator 21.0.2, SVG Export Plug-In . SVG Version: 6.00 Build 0)  -->
<svg version="1.1" id="Layer_1" xmlns="http://www.w3.org/2000/svg" xmlns:xlink="http://www.w3.org/1999/xlink" x="0px" y="0px"
	 viewBox="0 0 100 100" style="enable-background:new 0 0 100 100;" xml:space="preserve">
<path d="M34,53c3.9,0,7-3.1,7-7s-3.1-7-7-7s-7,3.1-7,7S30.1,53,34,53z M34,43c1.7,0,3,1.3,3,3s-1.3,3-3,3s-3-1.3-3-3S32.3,43,34,43z
	 M66,39c-3.9,0-7,3.1-7,7s3.1,7,7,7s7-3.1,7-7S69.9,39,66,39z M66,49c-1.7,0-3-1.3-3-3s1.3-3,3-3s3,1.3,3,3S67.7,49,66,49z
	 M71.5,70.5c0.8,0.8,0.7,2.1-0.1,2.8c-0.8,0.8-2.1,0.7-2.8-0.1C64.3,68.7,57.4,66,50.1,66c-7.5,0-14.4,2.7-18.6,7.3
	C31.1,73.8,30.5,74,30,74c-0.5,0-1-0.2-1.3-0.5c-0.8-0.7-0.9-2-0.1-2.8c4.9-5.4,13-8.7,21.6-8.7C58.5,62,66.5,65.2,71.5,70.5z M50,5
	C25.2,5,5,25.2,5,50c0,24.8,20.2,45,45,45c24.8,0,45-20.2,45-45C95,25.2,74.8,5,50,5z M50,91C27.4,91,9,72.6,9,50S27.4,9,50,9
	s41,18.4,41,41S72.6,91,50,91z"/>
</svg>
