<?xml version="1.0" encoding="utf-8"?>
<!-- Generator: Adobe Illustrator 21.0.2, SVG Export Plug-In . SVG Version: 6.00 Build 0)  -->
<svg version="1.1" id="Layer_1" xmlns="http://www.w3.org/2000/svg" xmlns:xlink="http://www.w3.org/1999/xlink" x="0px" y="0px"
	 viewBox="0 0 100 100" style="enable-background:new 0 0 100 100;" xml:space="preserve">
<path d="M86.5,21.1V49c0,1.1-0.4,27.6-35.6,45.3c-0.3,0.1-0.6,0.2-0.9,0.2c-0.4,0-0.7-0.1-1-0.3c-0.6-0.4-0.9-1-0.9-1.7V8.5
	c-5.2,0.2-20.2,1.8-30.7,13.4V49c0,0.2,0.4,21.3,25.8,37.5c0.9,0.6,1.2,1.8,0.6,2.7c-0.6,0.9-1.8,1.2-2.7,0.6
	C13.8,72.4,13.5,50,13.5,49V21.1c0-0.5,0.2-0.9,0.5-1.3C28.1,3.7,49.2,4.5,50.1,4.5c1,0,1.9,0.9,1.9,2v82.9
	C82.1,72.9,82.6,50,82.6,49V21.9c-7.8-8.6-18-11.8-25.2-12.9c-1.1-0.2-1.8-1.2-1.6-2.2C56,5.7,57,4.9,58,5.1c8,1.2,19.4,4.8,28,14.7
	C86.3,20.2,86.5,20.7,86.5,21.1z"/>
<g>
</g>
<g>
</g>
<g>
</g>
<g>
</g>
</svg>
