<?xml version="1.0" encoding="UTF-8"?>
<!-- Generator: Adobe Illustrator 19.1.0, SVG Export Plug-In . SVG Version: 6.00 Build 0)  -->
<svg xmlns="http://www.w3.org/2000/svg" xmlns:xlink="http://www.w3.org/1999/xlink" xmlns:dc="http://purl.org/dc/elements/1.1/" xmlns:cc="http://creativecommons.org/ns#" xmlns:rdf="http://www.w3.org/1999/02/22-rdf-syntax-ns#" version="1.1" id="DESIGNS" x="0px" y="0px" width="32px" height="32px" viewBox="0 0 32 32" style="enable-background:new 0 0 32 32;" xml:space="preserve">
<title property="dc:title">to present</title><desc property="dc:description">An icon for "present" from the Pictogram series on to [icon]. Downloaded from http://www.toicon.com/icons/pictogram_present by 91.194.174.10 on 2018-01-11. Licensed CC-BY, see http://toicon.com/license/ for details.</desc>
<g>
	<circle class="pictogram_zes" cx="16" cy="15.95" r="16" style="fill: #0C6667;"/>
	<path class="pictogram_een" d="M22.997,4H16H9C7.343,4,6,5.343,6,7v8.996C6,17.655,7.345,19,9.003,19H16h6.997   C24.655,19,26,17.655,26,15.996V7.003C26,5.345,24.655,4,22.997,4z" style="fill: #F4D6B0;"/>
	<path class="pictogram_twee" d="M16,4h3.514c0.022-0.095,0.058-0.184,0.058-0.286V3.429c0-0.71-0.576-1.286-1.286-1.286h-4.571   c-0.71,0-1.286,0.576-1.286,1.286v0.286c0,0.101,0.036,0.191,0.058,0.286L16,4L16,4z M23.018,21H17.5v-2H16h-1.5v2H8.982   c-0.71,0-1.286,0.576-1.286,1.286v0.286c0,0.71,0.576,1.286,1.286,1.286H9v6.514C11.117,31.404,13.486,32,16,32   s4.883-0.596,7-1.629v-6.514h0.018c0.71,0,1.286-0.576,1.286-1.286v-0.286C24.304,21.576,23.728,21,23.018,21z" style="fill: #F8AD89;"/>
	<path class="pictogram_vijf" d="M18,6.06h6v8h-6V6.06z M8,6.06h7v2H8V6.06z M8,9.06h5v2H8V9.06z M8,12.06h7v2H8V12.06z M8,15.06h4   v2H8V15.06z M20,15.06h4v2h-4V15.06z" style="fill: #01A59C;"/>
</g>
<metadata><work rdf:about=""><format>image/svg+xml</format><type rdf:resource="http://purl.org/dc/dcmitype/StillImage"/><license rdf:resource="http://creativecommons.org/licenses/by/4.0/"/><attributionname>Jo Szczepanska</attributionname><attributionurl>http://www.toicon.com/icons/pictogram_present</attributionurl></work></metadata></svg>
